#!OML:ASF X:\für Bonn\!DataBase\2005_08_10_Bjorn_Final\c3d\bjorn.ASF
:FULLY-SPECIFIED
:DEGREES
701
root -0.348394 1.30529 23.8663 -469.638 -178.658 367.724
lowerback 23.3145 1.07141 0.432527
upperback 7.46693 0.00836642 -4.30077
thorax -4.78314 -0.548758 -4.87249
lowerneck -15.4503 -6.65127 -2.54517
upperneck -1.08604 -9.40756 7.5949
head 2.90019 -4.65401 2.24128
rclavicle -4.45278e-014 1.5704e-014
rhumerus -214.534 -160.915 119.104
rradius 2.72339
rwrist 46.2288
rhand -9.47254 3.00926
rfingers 7.12502
rthumb 16.4915 -26.3098
lclavicle -4.45278e-014 1.5704e-014
lhumerus -392.104 -33.3582 -286.021
lradius 14.5152
lwrist -37.7933
lhand -8.64149 -9.6085
lfingers 7.12502
lthumb 17.2915 19.6423
rfemur -25.9921 -17.4871 -12.5673
rtibia 109.593
rfoot 36.5703 13.125
rtoes -0.291434
lfemur -37.1933 -5.06852 -0.535817
ltibia 119.519
lfoot 30.1516 -9.17074
ltoes 4.68317
702
root -0.348427 1.30605 23.8665 -469.639 -178.661 367.713
lowerback 23.2993 1.07212 0.407678
upperback 7.46306 0.00563998 -4.29605
thorax -4.78028 -0.549522 -4.85196
lowerneck -15.3743 -6.62796 -2.49424
upperneck -1.1495 -9.38091 7.55664
head 2.85688 -4.64509 2.22464
rclavicle 7.95139e-015 2.08724e-015
rhumerus -214.471 -160.901 119.266
rradius 2.48341
rwrist 46.0629
rhand -9.71773 2.87917
rfingers 7.12502
rthumb 16.2555 -26.4594
lclavicle 7.95139e-015 2.08724e-015
lhumerus -391.927 -32.9256 -286.332
lradius 14.3213
lwrist -38.4164
lhand -8.66164 -9.57827
lfingers 7.12502
lthumb 17.2721 19.6742
rfemur -25.9975 -17.4601 -12.5438
rtibia 109.591
rfoot 36.5526 13.1057
rtoes -0.347573
lfemur -37.1801 -5.03744 -0.518699
ltibia 119.508
lfoot 30.1516 -9.19479
ltoes 4.62607
703
root -0.348195 1.30649 23.8673 -469.636 -178.663 367.72
lowerback 23.2745 1.07869 0.3725
upperback 7.46864 0.00808176 -4.28676
thorax -4.76201 -0.54807 -4.82152
lowerneck -15.3238 -6.61556 -2.46913
upperneck -1.17762 -9.36599 7.53535
head 2.83404 -4.63986 2.21614
rclavicle 1.90833e-014 -3.20043e-014
rhumerus -214.417 -160.856 119.435
rradius 2.2236
rwrist 46.0182
rhand -9.94303 2.75029
rfingers 7.12502
rthumb 16.0385 -26.6059
lclavicle 1.90833e-014 -3.20043e-014
lhumerus -391.69 -32.3918 -286.717
lradius 14.1151
lwrist -39.173
lhand -8.59457 -9.57837
lfingers 7.12502
lthumb 17.3367 19.6684
rfemur -25.99 -17.4535 -12.5333
rtibia 109.584
rfoot 36.548 13.0919
rtoes -0.341435
lfemur -37.1831 -5.019 -0.506911
ltibia 119.502
lfoot 30.1566 -9.2125
ltoes 4.61481
704
root -0.348493 1.30706 23.8674 -469.648 -178.674 367.718
lowerback 23.2607 1.07737 0.36222
upperback 7.48336 0.00276268 -4.29087
thorax -4.73959 -0.551268 -4.81823
lowerneck -15.2908 -6.57903 -2.38938
upperneck -1.22622 -9.32873 7.50099
head 2.80199 -4.62496 2.19517
rclavicle 2.06736e-014 -6.52014e-014
rhumerus -214.329 -160.807 119.57
rradius 1.89822
rwrist 46.0932
rhand -10.2199 2.5874
rfingers 7.12502
rthumb 15.7719 -26.79
lclavicle 2.06736e-014 -6.52014e-014
lhumerus -391.341 -31.7203 -287.201
lradius 13.7892
lwrist -39.967
lhand -8.39623 -9.61647
lfingers 7.12502
lthumb 17.5276 19.6134
rfemur -25.9711 -17.4202 -12.5085
rtibia 109.576
rfoot 36.5406 13.0698
rtoes -0.329837
lfemur -37.1667 -4.99836 -0.485286
ltibia 119.498
lfoot 30.1556 -9.23123
ltoes 4.60371
705
root -0.347921 1.30722 23.8678 -469.657 -178.676 367.72
lowerback 23.2686 1.08533 0.321439
upperback 7.46857 0.00619652 -4.2796
thorax -4.75995 -0.549092 -4.78346
lowerneck -15.1895 -6.55883 -2.35426
upperneck -1.27499 -9.30357 7.47529
head 2.76129 -4.61604 2.18602
rclavicle -1.59028e-015 -1.19271e-015
rhumerus -214.274 -160.772 119.734
rradius 1.53775
rwrist 46.236
rhand -10.5104 2.3199
rfingers 7.12502
rthumb 15.4921 -27.0794
lclavicle -1.59028e-015 -1.19271e-015
lhumerus -391.04 -31.0244 -287.65
lradius 13.4743
lwrist -40.7688
lhand -8.11369 -9.62193
lfingers 7.12502
lthumb 17.7994 19.5835
rfemur -25.9595 -17.4053 -12.4989
rtibia 109.571
rfoot 36.537 13.053
rtoes -0.317428
lfemur -37.1598 -4.96867 -0.467103
ltibia 119.493
lfoot 30.1626 -9.2569
ltoes 4.59122
706
root -0.348019 1.30801 23.8684 -469.673 -178.677 367.719
lowerback 23.2534 1.08791 0.304336
upperback 7.48921 0.00272047 -4.29126
thorax -4.73017 -0.551977 -4.78491
lowerneck -15.1628 -6.52598 -2.25115
upperneck -1.32973 -9.27319 7.40977
head 2.72526 -4.60561 2.14983
rclavicle 2.70347e-014 -2.01766e-014
rhumerus -214.154 -160.692 119.835
rradius 1.15829
rwrist 46.3484
rhand -10.7061 2.06612
rfingers 7.12502
rthumb 15.3036 -27.3477
lclavicle 2.70347e-014 -2.01766e-014
lhumerus -390.65 -30.2261 -288.219
lradius 13.1479
lwrist -41.642
lhand -7.7422 -9.69115
lfingers 7.12502
lthumb 18.1569 19.4814
rfemur -25.9353 -17.3817 -12.4931
rtibia 109.562
rfoot 36.5307 13.042
rtoes -0.311336
lfemur -37.1349 -4.9485 -0.458101
ltibia 119.487
lfoot 30.1601 -9.27373
ltoes 4.58028
707
root -0.348007 1.30883 23.8687 -469.666 -178.675 367.717
lowerback 23.2322 1.0928 0.258954
upperback 7.481 0.00333714 -4.27278
thorax -4.7291 -0.550566 -4.73825
lowerneck -15.0789 -6.51054 -2.26516
upperneck -1.37198 -9.2459 7.40136
head 2.69419 -4.59413 2.15476
rclavicle 3.18055e-014 -4.51241e-014
rhumerus -214.12 -160.674 120.008
rradius 0.909328
rwrist 46.4276
rhand -10.7291 1.82866
rfingers 7.12502
rthumb 15.2814 -27.5868
lclavicle 3.18055e-014 -4.51241e-014
lhumerus -390.309 -29.3444 -288.75
lradius 12.8128
lwrist -42.6538
lhand -7.4649 -9.72589
lfingers 7.12502
lthumb 18.4236 19.4216
rfemur -25.9429 -17.3632 -12.4701
rtibia 109.562
rfoot 36.5104 13.0464
rtoes -0.554617
lfemur -37.1387 -4.90849 -0.441336
ltibia 119.484
lfoot 30.1626 -9.29926
ltoes 4.5679
708
root -0.347781 1.30864 23.8687 -469.666 -178.678 367.727
lowerback 23.2291 1.09237 0.238514
upperback 7.47374 -0.00124153 -4.27747
thorax -4.73612 -0.552448 -4.73038
lowerneck -15.026 -6.48456 -2.20439
upperneck -1.38947 -9.21909 7.3733
head 2.67167 -4.58314 2.13863
rclavicle -2.38542e-014 1.49089e-015
rhumerus -214.089 -160.616 120.141
rradius 0.66764
rwrist 46.3575
rhand -10.7332 1.54039
rfingers 7.12502
rthumb 15.2775 -27.8754
lclavicle -2.38542e-014 1.49089e-015
lhumerus -389.962 -28.3786 -289.385
lradius 12.4999
lwrist -43.8344
lhand -7.24388 -9.84578
lfingers 7.12502
lthumb 18.6363 19.2815
rfemur -25.942 -17.3509 -12.4553
rtibia 109.562
rfoot 36.5203 13.0233
rtoes -0.522583
lfemur -37.1536 -4.88494 -0.423216
ltibia 119.484
lfoot 30.1754 -9.32346
ltoes 4.55528
709
root -0.347525 1.30935 23.8692 -469.687 -178.687 367.717
lowerback 23.211 1.09796 0.223854
upperback 7.50419 -0.000602685 -4.28216
thorax -4.69382 -0.553825 -4.72651
lowerneck -15.0043 -6.45522 -2.12153
upperneck -1.45173 -9.19279 7.34044
head 2.63779 -4.57427 2.11657
rclavicle 8.11041e-014 -7.33515e-014
rhumerus -213.975 -160.527 120.233
rradius 0.412875
rwrist 46.1879
rhand -10.7005 1.24696
rfingers 7.12502
rthumb 15.309 -28.1664
lclavicle 8.11041e-014 -7.33515e-014
lhumerus -389.492 -27.2053 -290.146
lradius 12.137
lwrist -45.2152
lhand -7.10538 -9.98213
lfingers 7.12502
lthumb 18.7695 19.1323
rfemur -25.9134 -17.3131 -12.4326
rtibia 109.55
rfoot 36.51 13.0064
rtoes -0.517021
lfemur -37.1156 -4.85903 -0.399766
ltibia 119.474
lfoot 30.1773 -9.34221
ltoes 4.55294
710
root -0.346905 1.30988 23.8697 -469.7 -178.694 367.712
lowerback 23.2074 1.1034 0.181441
upperback 7.51217 -0.00124959 -4.25966
thorax -4.68397 -0.554434 -4.67694
lowerneck -14.9566 -6.42704 -2.09842
upperneck -1.49516 -9.15336 7.30229
head 2.6083 -4.55724 2.10496
rclavicle -1.74931e-014 1.38155e-014
rhumerus -213.903 -160.486 120.376
rradius 0.247353
rwrist 45.973
rhand -10.6187 0.96477
rfingers 7.12502
rthumb 15.3878 -28.4426
lclavicle -1.74931e-014 1.38155e-014
lhumerus -389.072 -25.9439 -290.866
lradius 11.7817
lwrist -46.6624
lhand -7.07115 -10.0904
lfingers 7.12502
lthumb 18.8024 19.0208
rfemur -25.9025 -17.2728 -12.4002
rtibia 109.545
rfoot 36.5009 12.973
rtoes -0.502439
lfemur -37.0955 -4.80383 -0.364473
ltibia 119.459
lfoot 30.1858 -9.39111
ltoes 4.50899
711
root -0.346746 1.31073 23.8706 -469.717 -178.675 367.731
lowerback 23.2087 1.10951 0.143015
upperback 7.51973 -0.00431141 -4.2709
thorax -4.67702 -0.55688 -4.66615
lowerneck -14.941 -6.4059 -2.01579
upperneck -1.51099 -9.13484 7.23857
head 2.59007 -4.55078 2.07136
rclavicle 0 6.26172e-015
rhumerus -213.848 -160.402 120.494
rradius 0.0619782
rwrist 45.8363
rhand -10.5819 0.72603
rfingers 7.12502
rthumb 15.4232 -28.6786
lclavicle 0 6.26172e-015
lhumerus -388.662 -24.6652 -291.655
lradius 11.4515
lwrist -48.1885
lhand -7.18253 -10.2075
lfingers 7.12502
lthumb 18.6953 18.9141
rfemur -25.8631 -17.2528 -12.4241
rtibia 109.53
rfoot 36.4943 12.9616
rtoes -0.49015
lfemur -37.0697 -4.80679 -0.393654
ltibia 119.446
lfoot 30.1836 -9.39366
ltoes 4.50029
712
root -0.34684 1.31092 23.871 -469.727 -178.691 367.725
lowerback 23.2093 1.10208 0.134444
upperback 7.51788 -0.0152689 -4.27026
thorax -4.68035 -0.562022 -4.6576
lowerneck -14.8353 -6.36061 -1.93711
upperneck -1.59136 -9.08297 7.20244
head 2.53378 -4.53042 2.05376
rclavicle -3.33958e-014 8.73659e-014
rhumerus -213.804 -160.356 120.598
rradius -0.029631
rwrist 45.6824
rhand -10.5635 0.482329
rfingers 7.12502
rthumb 15.441 -28.9209
lclavicle -3.33958e-014 8.73659e-014
lhumerus -388.292 -23.2202 -292.49
lradius 11.154
lwrist -49.8197
lhand -7.27945 -10.3063
lfingers 7.12502
lthumb 18.602 18.8242
rfemur -25.8622 -17.2183 -12.3812
rtibia 109.524
rfoot 36.4863 12.9519
rtoes -0.544232
lfemur -37.0571 -4.7831 -0.350815
ltibia 119.437
lfoot 30.2095 -9.36498
ltoes 4.66671
